<svg xmlns="http://www.w3.org/2000/svg" viewBox="0 0 121.38 102.53"><title>loading</title><path d="M264.53,406.24a3.59,3.59,0,0,0-5.07.29h0L254.6,412a44.08,44.08,0,0,1,78-18.33,3.59,3.59,0,1,0,5.68-4.39,51.24,51.24,0,0,0-90.88,21.86l-3.69-6a3.59,3.59,0,0,0-6.12,3.77l9.46,15.34,0.09,0.13,0.08,0.12a3.69,3.69,0,0,0,.38.44l0.05,0a3.53,3.53,0,0,0,.45.35l0.06,0a3.49,3.49,0,0,0,.52.28l0.12,0a3.61,3.61,0,0,0,.57.17h0.08l0.33,0h0.46a3.56,3.56,0,0,0,.36-0.05l0.3,0a3.59,3.59,0,0,0,.45-0.15l0.24-.08a3.61,3.61,0,0,0,.57-0.34l0,0a3.64,3.64,0,0,0,.55-0.5l0,0,12-13.46A3.59,3.59,0,0,0,264.53,406.24ZM358,432.38L348.5,417l-0.1-.15-0.08-.12a3.65,3.65,0,0,0-.39-0.44l-0.07-.06a3.48,3.48,0,0,0-.5-0.38h0a3.59,3.59,0,0,0-.56-0.28l-0.1,0a3.63,3.63,0,0,0-.6-0.16H346l-0.23,0a3.59,3.59,0,0,0-1.11.08h-0.07a3.59,3.59,0,0,0-.6.21l-0.1,0a3.52,3.52,0,0,0-.53.31l-0.07.05a3.67,3.67,0,0,0-.41.36l-0.08.09,0,0-12,13.46a3.59,3.59,0,0,0,5.37,4.78h0l4.86-5.46a44.08,44.08,0,0,1-78,18.33,3.59,3.59,0,1,0-5.68,4.4h0a51.35,51.35,0,0,0,40.5,19.88h0a51.22,51.22,0,0,0,50.37-41.74l3.69,6A3.59,3.59,0,0,0,358,432.38Z" transform="translate(-237.11 -369.39)" style="fill:#040000"/></svg>