<svg width="1620" height="1080" viewBox="0 0 1620 1080" fill="none" xmlns="http://www.w3.org/2000/svg">
<rect width="1620" height="1080" fill="#999999" fill-opacity="0.3"/>
<g clip-path="url(#clip0_2110_4463)">
<path d="M772.288 492.812C772.288 500.321 769.305 507.523 763.995 512.832C758.686 518.142 751.484 521.125 743.975 521.125C736.466 521.125 729.265 518.142 723.955 512.832C718.646 507.523 715.663 500.321 715.663 492.812C715.663 485.304 718.646 478.102 723.955 472.793C729.265 467.483 736.466 464.5 743.975 464.5C751.484 464.5 758.686 467.483 763.995 472.793C769.305 478.102 772.288 485.304 772.288 492.812Z" fill="#AAAAAA" fill-opacity="0.7"/>
<path d="M696.788 407.875C686.776 407.875 677.174 411.852 670.094 418.932C663.015 426.011 659.038 435.613 659.038 445.625V634.375C659.038 644.387 663.015 653.989 670.094 661.068C677.174 668.148 686.776 672.125 696.788 672.125H923.288C933.3 672.125 942.902 668.148 949.981 661.068C957.061 653.989 961.038 644.387 961.038 634.375V445.625C961.038 435.613 957.061 426.011 949.981 418.932C942.902 411.852 933.3 407.875 923.288 407.875H696.788ZM923.288 426.75C928.294 426.75 933.095 428.739 936.634 432.278C940.174 435.818 942.163 440.619 942.163 445.625V568.312L870.872 531.563C869.102 530.676 867.098 530.369 865.143 530.684C863.189 530.999 861.383 531.92 859.981 533.318L789.955 603.344L739.747 569.898C737.934 568.691 735.76 568.148 733.593 568.362C731.426 568.575 729.399 569.531 727.856 571.068L677.913 615.5V445.625C677.913 440.619 679.901 435.818 683.441 432.278C686.981 428.739 691.782 426.75 696.788 426.75H923.288Z" fill="#AAAAAA" fill-opacity="0.7"/>
</g>
<defs>
<clipPath id="clip0_2110_4463">
<rect width="302" height="302" fill="white" transform="translate(659 389)"/>
</clipPath>
</defs>
</svg>